<svg preserveAspectRatio="none" width="100%" height="100%" overflow="visible" style="display: block;" viewBox="0 0 76 48" fill="none" xmlns="http://www.w3.org/2000/svg">
<g id="Frame 2249">
<g id="Vector">
<path d="M38 20C32.477 20 28 15.523 28 10C28 4.477 32.477 0 38 0C43.523 0 48 4.477 48 10C48 15.523 43.523 20 38 20ZM38 18C42.4185 18 46 14.4185 46 10C46 5.5815 42.4185 2 38 2C33.5815 2 30 5.5815 30 10C30 14.4185 33.5815 18 38 18Z" fill="#FFC16E"/>
<path d="M37.2855 7.3395C37.3758 7.23686 37.4862 7.15382 37.6098 7.09552C37.7335 7.03722 37.8678 7.00489 38.0044 7.00053C38.1411 6.99617 38.2772 7.01988 38.4043 7.07018C38.5314 7.12049 38.6468 7.19632 38.7435 7.293L42.279 10.828C42.3719 10.9208 42.4456 11.0311 42.4959 11.1524C42.5462 11.2737 42.5722 11.4038 42.5722 11.5351C42.5723 11.6665 42.5464 11.7966 42.4962 11.9179C42.446 12.0393 42.3723 12.1496 42.2795 12.2425C42.1867 12.3354 42.0764 12.4091 41.9551 12.4594C41.8338 12.5097 41.7037 12.5357 41.5724 12.5357C41.441 12.5358 41.3109 12.5099 41.1896 12.4597C41.0682 12.4095 40.9579 12.3358 40.865 12.243L38.038 9.4155L35.207 12.2465C35.0194 12.434 34.765 12.5393 34.4998 12.5393C34.2346 12.5392 33.9803 12.4338 33.7928 12.2463C33.6052 12.0587 33.4999 11.8043 33.5 11.5391C33.5 11.2739 33.6054 11.0195 33.793 10.832L37.2855 7.3395Z" fill="#FFC16E"/>
</g>
<g id="Vector_2">
<path d="M56 38C56 32.477 60.477 28 66 28C71.523 28 76 32.477 76 38C76 43.523 71.523 48 66 48C60.477 48 56 43.523 56 38ZM58 38C58 42.4185 61.5815 46 66 46C70.4185 46 74 42.4185 74 38C74 33.5815 70.4185 30 66 30C61.5815 30 58 33.5815 58 38Z" fill="#FFC16E"/>
<path d="M68.6605 37.2855C68.7631 37.3758 68.8462 37.4862 68.9045 37.6098C68.9628 37.7335 68.9951 37.8678 68.9995 38.0044C69.0038 38.1411 68.9801 38.2772 68.9298 38.4043C68.8795 38.5314 68.8037 38.6468 68.707 38.7435L65.172 42.279C65.0792 42.3719 64.9689 42.4456 64.8476 42.4959C64.7263 42.5462 64.5962 42.5722 64.4649 42.5722C64.3335 42.5723 64.2034 42.5464 64.0821 42.4962C63.9607 42.446 63.8504 42.3723 63.7575 42.2795C63.6646 42.1867 63.5909 42.0764 63.5406 41.9551C63.4903 41.8338 63.4643 41.7037 63.4643 41.5724C63.4642 41.441 63.4901 41.3109 63.5403 41.1896C63.5905 41.0682 63.6642 40.9579 63.757 40.865L66.5845 38.038L63.7535 35.207C63.566 35.0194 63.4607 34.765 63.4607 34.4998C63.4608 34.2346 63.5662 33.9803 63.7537 33.7928C63.9413 33.6052 64.1957 33.4999 64.4609 33.5C64.7261 33.5 64.9805 33.6054 65.168 33.793L68.6605 37.2855Z" fill="#FFC16E"/>
</g>
<g id="Vector_3">
<path d="M20 38C20 43.523 15.523 48 10 48C4.477 48 0 43.523 0 38C0 32.477 4.477 28 10 28C15.523 28 20 32.477 20 38ZM18 38C18 33.5815 14.4185 30 10 30C5.5815 30 2 33.5815 2 38C2 42.4185 5.5815 46 10 46C14.4185 46 18 42.4185 18 38Z" fill="#FFC16E"/>
<path d="M7.3395 38.7145C7.23686 38.6242 7.15382 38.5138 7.09552 38.3902C7.03722 38.2665 7.00489 38.1322 7.00053 37.9956C6.99617 37.8589 7.01988 37.7228 7.07018 37.5957C7.12049 37.4686 7.19632 37.3532 7.293 37.2565L10.828 33.721C10.9208 33.6281 11.0311 33.5544 11.1524 33.5041C11.2737 33.4538 11.4038 33.4278 11.5351 33.4278C11.6665 33.4277 11.7966 33.4536 11.9179 33.5038C12.0393 33.554 12.1496 33.6277 12.2425 33.7205C12.3354 33.8133 12.4091 33.9236 12.4594 34.0449C12.5097 34.1662 12.5357 34.2963 12.5357 34.4276C12.5358 34.559 12.5099 34.6891 12.4597 34.8104C12.4095 34.9318 12.3358 35.0421 12.243 35.135L9.4155 37.962L12.2465 40.793C12.434 40.9806 12.5393 41.235 12.5393 41.5002C12.5392 41.7654 12.4338 42.0197 12.2463 42.2072C12.0587 42.3948 11.8043 42.5001 11.5391 42.5C11.2739 42.5 11.0195 42.3946 10.832 42.207L7.3395 38.7145Z" fill="#FFC16E"/>
</g>
<g id="Vector_4">
<path d="M38 28C43.523 28 48 32.477 48 38C48 43.523 43.523 48 38 48C32.477 48 28 43.523 28 38C28 32.477 32.477 28 38 28ZM38 30C33.5815 30 30 33.5815 30 38C30 42.4185 33.5815 46 38 46C42.4185 46 46 42.4185 46 38C46 33.5815 42.4185 30 38 30Z" fill="#FFC16E"/>
<path d="M38.7145 40.6605C38.6242 40.7631 38.5138 40.8462 38.3902 40.9045C38.2665 40.9628 38.1322 40.9951 37.9956 40.9995C37.8589 41.0038 37.7228 40.9801 37.5957 40.9298C37.4686 40.8795 37.3532 40.8037 37.2565 40.707L33.721 37.172C33.6281 37.0792 33.5544 36.9689 33.5041 36.8476C33.4538 36.7263 33.4278 36.5962 33.4278 36.4649C33.4277 36.3335 33.4536 36.2034 33.5038 36.0821C33.554 35.9607 33.6277 35.8504 33.7205 35.7575C33.8133 35.6646 33.9236 35.5909 34.0449 35.5406C34.1662 35.4903 34.2963 35.4643 34.4276 35.4643C34.559 35.4642 34.6891 35.4901 34.8104 35.5403C34.9318 35.5905 35.0421 35.6642 35.135 35.757L37.962 38.5845L40.793 35.7535C40.9806 35.566 41.235 35.4607 41.5002 35.4607C41.7654 35.4608 42.0197 35.5662 42.2072 35.7537C42.3948 35.9413 42.5001 36.1957 42.5 36.4609C42.5 36.7261 42.3946 36.9805 42.207 37.168L38.7145 40.6605Z" fill="#FFC16E"/>
</g>
</g>
</svg>
